<svg xmlns="http://www.w3.org/2000/svg" viewBox="0 0 1600 900"><defs><linearGradient id="sky" x1="0" y1="0" x2="0" y2="1"><stop offset="0%" stop-color="#2e355e"/><stop offset="100%" stop-color="#090d1a"/></linearGradient><filter id="glow" x="-20%" y="-20%" width="140%" height="140%"><feGaussianBlur stdDeviation="8" result="b"/><feMerge><feMergeNode in="b"/><feMergeNode in="SourceGraphic"/></feMerge></filter><filter id="blur"><feGaussianBlur stdDeviation="18"/></filter></defs><rect width="1600" height="900" fill="url(#sky)"/><g fill="#5f678e" opacity="0.62" filter="url(#blur)"><ellipse cx="340" cy="180" rx="240" ry="70"/><ellipse cx="820" cy="220" rx="350" ry="90"/><ellipse cx="1270" cy="170" rx="250" ry="72"/></g><g stroke="#b4c7ff" stroke-width="4" opacity="0.46"><path d="M200 290 L150 470"/><path d="M330 300 L280 510"/><path d="M520 280 L470 520"/><path d="M740 300 L700 540"/><path d="M950 280 L900 520"/><path d="M1160 300 L1110 540"/><path d="M1360 280 L1310 520"/></g><path d="M870 60 L800 220 L860 225 L770 420" stroke="#f0f2ff" stroke-width="8" fill="none" filter="url(#glow)" opacity="0.9"/><rect y="700" width="1600" height="200" fill="#090d18"/></svg>